{
  "title": "The Intern (2015) CAMRip [Rus]",
  "uid": 12500773,
  "size": 787855404,
  "categoryP": "video",
  "categoryS": "movies",
  "magnet": "?xt=urn:btih:41fcf1496cbbb8498e92e6c144f6eed6ac985325&amp;dn=The+Intern+%282015%29+CAMRip+%5BRus%5D&amp;tr=udp%3A%2F%2Ftracker.leechers-paradise.org%3A6969&amp;tr=udp%3A%2F%2Fzer0day.ch%3A1337&amp;tr=udp%3A%2F%2Fopen.demonii.com%3A1337&amp;tr=udp%3A%2F%2Ftracker.coppersurfer.tk%3A6969&amp;tr=udp%3A%2F%2Fexodus.desync.com%3A6969",
  "seeders": 46,
  "leechers": 0,
  "uploader": "nbdjod",
  "files": 1,
  "time": 1443360173,
  "description": "The Intern (2015) CAMRip [Rus]\r\n\r\nAudio - Russian!!!\r\n\r\nMI:\r\nGeneral\r\nFormat : AVI\r\nFormat/Info : Audio Video Interleave\r\nFile size : 751 MiB\r\nDuration : 1h 30mn\r\nOverall bit rate : 1 158 Kbps\r\nWriting application : VirtualDubMod 1.5.10.2 (build 2540/release)\r\nWriting library : VirtualDub build 35491/release\r\n\r\nVideo\r\nID : 0\r\nFormat : MPEG-4 Visual\r\nFormat profile : Advanced   \r\nFormat settings, BVOP : 2\r\nFormat settings, QPel : No\r\nFormat settings, GMC : No warppoints\r\nFormat settings, Matrix : Default (H.263)\r\nMuxing mode : Packed bitstream\r\nCodec ID : XVID\r\nCodec ID/Hint : XviD\r\nDuration : 1h 30mn\r\nBit rate : 1 020 Kbps\r\nWidth : 720 pixels\r\nHeight : 336 pixels\r\nDisplay aspect ratio : 2.143\r\nFrame rate : 25.000 fps\r\nColor space : YUV\r\nChroma subsampling : 4:2:0\r\nBit depth : 8 bits\r\nScan type : Progressive\r\nCompression mode : Lossy\r\nBits/(Pixel*Frame) : 0.169\r\nStream size : 662 MiB (88%)\r\nWriting library : XviD 73\r\n\r\nAudio\r\nID : 1\r\nFormat : MPEG Audio\r\nFormat version : Version 1\r\nFormat profile : Layer 3\r\nMode : Joint stereo\r\nMode extension : MS Stereo\r\nCodec ID : 55\r\nCodec ID/Hint : MP3\r\nDuration : 1h 30mn\r\nBit rate mode : Constant\r\nBit rate : 128 Kbps\r\nChannel(s) : 2 channels\r\nSampling rate : 48.0 KHz\r\nCompression mode : Lossy\r\nStream size : 83.0 MiB (11%)\r\nAlignment : Split accross interleaves\r\nInterleave, duration : 40 ms (1.00 video frame)\r\nInterleave, preload duration : 500 ms\r\n\r\nScreens:\r  http://i2.imageban.ru/out/2015/09/27/38e09196d5e38a727ea2a7e9f600279c.png \nhttp://i6.imageban.ru/out/2015/09/27/f6b13c1f111d612cff8e9416c8aaf15d.png \nhttp://i5.imageban.ru/out/2015/09/27/ad6823e3422f7600574865d7ff8b8397.png \nhttp://i2.imageban.ru/out/2015/09/27/bc4ad190746652678ff26f004669b26c.png\r\n\r\nSample: \nhttp://sendfile.su/1158675",
  "parsed": {
    "xt": "urn:btih:41fcf1496cbbb8498e92e6c144f6eed6ac985325",
    "dn": "The Intern (2015) CAMRip [Rus]",
    "tr": [
      "udp://exodus.desync.com:6969",
      "udp://open.demonii.com:1337",
      "udp://tracker.coppersurfer.tk:6969",
      "udp://tracker.leechers-paradise.org:6969",
      "udp://zer0day.ch:1337"
    ],
    "infoHash": "41fcf1496cbbb8498e92e6c144f6eed6ac985325",
    "infoHashBuffer": {
      "type": "Buffer",
      "data": [
        65,
        252,
        241,
        73,
        108,
        187,
        184,
        73,
        142,
        146,
        230,
        193,
        68,
        246,
        238,
        214,
        172,
        152,
        83,
        37
      ]
    },
    "name": "The Intern (2015) CAMRip [Rus]",
    "announce": [
      "udp://exodus.desync.com:6969",
      "udp://open.demonii.com:1337",
      "udp://tracker.coppersurfer.tk:6969",
      "udp://tracker.leechers-paradise.org:6969",
      "udp://zer0day.ch:1337"
    ],
    "urlList": []
  },
  "previous": 53,
  "peers": 53,
  "last_updated": "2016-12-26T22:30:09.727Z"
}